<svg width="47" height="47" viewBox="0 0 47 47" fill="none" xmlns="http://www.w3.org/2000/svg">
<g filter="url(#filter0_d_20_17623)">
<g filter="url(#filter1_i_20_17623)">
<path d="M35 17.5C35 24.4036 29.4036 30 22.5 30C15.5964 30 10 24.4036 10 17.5C10 10.5964 15.5964 5 22.5 5C29.4036 5 35 10.5964 35 17.5Z" fill="url(#paint0_linear_20_17623)"/>
</g>
<g filter="url(#filter2_bii_20_17623)">
<path fill-rule="evenodd" clip-rule="evenodd" d="M17.5 35C24.4036 35 30 29.4036 30 22.5C30 15.5964 24.4036 10 17.5 10C10.5964 10 5 15.5964 5 22.5C5 29.4036 10.5964 35 17.5 35ZM10 19.4686C10 17.0046 12.0046 15 14.4686 15H20.5314C22.9954 15 25 17.0046 25 19.4686V25.5314C25 27.9954 22.9954 30 20.5314 30H14.4686C12.0046 30 10 27.9954 10 25.5314V19.4686ZM20.5314 28.491C22.1659 28.491 23.491 27.1659 23.491 25.5314V19.4686C23.491 17.834 22.1659 16.509 20.5314 16.509H14.4686C12.8341 16.509 11.509 17.834 11.509 19.4686V25.5314C11.509 27.1659 12.8341 28.491 14.4686 28.491H20.5314ZM22.3167 18.6496C22.3167 19.163 21.9005 19.5792 21.387 19.5792C20.8736 19.5792 20.4574 19.163 20.4574 18.6496C20.4574 18.1362 20.8736 17.72 21.387 17.72C21.9005 17.72 22.3167 18.1362 22.3167 18.6496ZM17.5 18.6205C15.3608 18.6205 13.6205 20.3608 13.6205 22.5C13.6205 24.6391 15.3608 26.3795 17.5 26.3795C19.6392 26.3795 21.3795 24.6391 21.3795 22.5C21.3795 20.3608 19.6392 18.6205 17.5 18.6205ZM17.5 24.8705C16.1908 24.8705 15.1295 23.8092 15.1295 22.5C15.1295 21.1908 16.1908 20.1295 17.5 20.1295C18.8092 20.1295 19.8705 21.1908 19.8705 22.5C19.8705 23.8092 18.8092 24.8705 17.5 24.8705Z" fill="white" fill-opacity="0.4"/>
</g>
</g>
<defs>
<filter id="filter0_d_20_17623" x="1" y="1" width="46" height="46" filterUnits="userSpaceOnUse" color-interpolation-filters="sRGB">
<feFlood flood-opacity="0" result="BackgroundImageFix"/>
<feColorMatrix in="SourceAlpha" type="matrix" values="0 0 0 0 0 0 0 0 0 0 0 0 0 0 0 0 0 0 127 0" result="hardAlpha"/>
<feOffset dx="4" dy="4"/>
<feGaussianBlur stdDeviation="4"/>
<feColorMatrix type="matrix" values="0 0 0 0 0.991667 0 0 0 0 0.501783 0 0 0 0 0.347083 0 0 0 0.4 0"/>
<feBlend mode="normal" in2="BackgroundImageFix" result="effect1_dropShadow_20_17623"/>
<feBlend mode="normal" in="SourceGraphic" in2="effect1_dropShadow_20_17623" result="shape"/>
</filter>
<filter id="filter1_i_20_17623" x="10" y="5" width="25" height="25" filterUnits="userSpaceOnUse" color-interpolation-filters="sRGB">
<feFlood flood-opacity="0" result="BackgroundImageFix"/>
<feBlend mode="normal" in="SourceGraphic" in2="BackgroundImageFix" result="shape"/>
<feColorMatrix in="SourceAlpha" type="matrix" values="0 0 0 0 0 0 0 0 0 0 0 0 0 0 0 0 0 0 127 0" result="hardAlpha"/>
<feOffset/>
<feGaussianBlur stdDeviation="4"/>
<feComposite in2="hardAlpha" operator="arithmetic" k2="-1" k3="1"/>
<feColorMatrix type="matrix" values="0 0 0 0 1 0 0 0 0 1 0 0 0 0 1 0 0 0 0.8 0"/>
<feBlend mode="normal" in2="shape" result="effect1_innerShadow_20_17623"/>
</filter>
<filter id="filter2_bii_20_17623" x="1" y="6" width="33" height="33" filterUnits="userSpaceOnUse" color-interpolation-filters="sRGB">
<feFlood flood-opacity="0" result="BackgroundImageFix"/>
<feGaussianBlur in="BackgroundImageFix" stdDeviation="2"/>
<feComposite in2="SourceAlpha" operator="in" result="effect1_backgroundBlur_20_17623"/>
<feBlend mode="normal" in="SourceGraphic" in2="effect1_backgroundBlur_20_17623" result="shape"/>
<feColorMatrix in="SourceAlpha" type="matrix" values="0 0 0 0 0 0 0 0 0 0 0 0 0 0 0 0 0 0 127 0" result="hardAlpha"/>
<feOffset/>
<feGaussianBlur stdDeviation="2"/>
<feComposite in2="hardAlpha" operator="arithmetic" k2="-1" k3="1"/>
<feColorMatrix type="matrix" values="0 0 0 0 1 0 0 0 0 1 0 0 0 0 1 0 0 0 1 0"/>
<feBlend mode="normal" in2="shape" result="effect2_innerShadow_20_17623"/>
<feColorMatrix in="SourceAlpha" type="matrix" values="0 0 0 0 0 0 0 0 0 0 0 0 0 0 0 0 0 0 127 0" result="hardAlpha"/>
<feOffset dy="4"/>
<feGaussianBlur stdDeviation="4"/>
<feComposite in2="hardAlpha" operator="arithmetic" k2="-1" k3="1"/>
<feColorMatrix type="matrix" values="0 0 0 0 1 0 0 0 0 1 0 0 0 0 1 0 0 0 1 0"/>
<feBlend mode="normal" in2="effect2_innerShadow_20_17623" result="effect3_innerShadow_20_17623"/>
</filter>
<linearGradient id="paint0_linear_20_17623" x1="22.5" y1="29.9272" x2="22.5" y2="5.19418" gradientUnits="userSpaceOnUse">
<stop stop-color="#E09B3D"/>
<stop offset="0.3" stop-color="#C74C4D"/>
<stop offset="0.6" stop-color="#C21975"/>
<stop offset="1" stop-color="#7024C4"/>
</linearGradient>
</defs>
</svg>
