<svg width="47" height="47" viewBox="0 0 47 47" fill="none" xmlns="http://www.w3.org/2000/svg">
<g filter="url(#filter0_d_20_17624)">
<g filter="url(#filter1_i_20_17624)">
<path d="M35 17.5C35 24.4036 29.4036 30 22.5 30C15.5964 30 10 24.4036 10 17.5C10 10.5964 15.5964 5 22.5 5C29.4036 5 35 10.5964 35 17.5Z" fill="#0077B5"/>
</g>
<g filter="url(#filter2_bii_20_17624)">
<path fill-rule="evenodd" clip-rule="evenodd" d="M17.5 35C24.4036 35 30 29.4036 30 22.5C30 15.5964 24.4036 10 17.5 10C10.5964 10 5 15.5964 5 22.5C5 29.4036 10.5964 35 17.5 35ZM12.1175 18.3518C13.2431 18.3518 13.9441 17.6066 13.9441 16.6753C13.9231 15.7243 13.2431 15 12.1388 15C11.0345 15 10.3125 15.7243 10.3125 16.6753C10.3125 17.6066 11.0131 18.3518 12.0969 18.3518H12.1175ZM13.7315 29.3747V19.6756H10.5034V29.3747H13.7315ZM25.3732 23.8136L25.3731 29.3747H22.1451V24.1857C22.1451 22.8823 21.678 21.993 20.5094 21.993C19.6176 21.993 19.0864 22.5925 18.8531 23.1716C18.7677 23.3792 18.7468 23.6683 18.7468 23.9582V29.375H15.5183C15.5183 29.375 15.5609 20.586 15.5183 19.6759H18.7468V21.0497C19.1752 20.3893 19.9426 19.4479 21.6565 19.4479C23.7807 19.4479 25.3732 20.8344 25.3732 23.8136Z" fill="white" fill-opacity="0.4"/>
</g>
</g>
<defs>
<filter id="filter0_d_20_17624" x="1" y="1" width="46" height="46" filterUnits="userSpaceOnUse" color-interpolation-filters="sRGB">
<feFlood flood-opacity="0" result="BackgroundImageFix"/>
<feColorMatrix in="SourceAlpha" type="matrix" values="0 0 0 0 0 0 0 0 0 0 0 0 0 0 0 0 0 0 127 0" result="hardAlpha"/>
<feOffset dx="4" dy="4"/>
<feGaussianBlur stdDeviation="4"/>
<feColorMatrix type="matrix" values="0 0 0 0 0 0 0 0 0 0.466667 0 0 0 0 0.709804 0 0 0 0.4 0"/>
<feBlend mode="normal" in2="BackgroundImageFix" result="effect1_dropShadow_20_17624"/>
<feBlend mode="normal" in="SourceGraphic" in2="effect1_dropShadow_20_17624" result="shape"/>
</filter>
<filter id="filter1_i_20_17624" x="10" y="5" width="25" height="25" filterUnits="userSpaceOnUse" color-interpolation-filters="sRGB">
<feFlood flood-opacity="0" result="BackgroundImageFix"/>
<feBlend mode="normal" in="SourceGraphic" in2="BackgroundImageFix" result="shape"/>
<feColorMatrix in="SourceAlpha" type="matrix" values="0 0 0 0 0 0 0 0 0 0 0 0 0 0 0 0 0 0 127 0" result="hardAlpha"/>
<feOffset/>
<feGaussianBlur stdDeviation="4"/>
<feComposite in2="hardAlpha" operator="arithmetic" k2="-1" k3="1"/>
<feColorMatrix type="matrix" values="0 0 0 0 1 0 0 0 0 1 0 0 0 0 1 0 0 0 0.8 0"/>
<feBlend mode="normal" in2="shape" result="effect1_innerShadow_20_17624"/>
</filter>
<filter id="filter2_bii_20_17624" x="1" y="6" width="33" height="33" filterUnits="userSpaceOnUse" color-interpolation-filters="sRGB">
<feFlood flood-opacity="0" result="BackgroundImageFix"/>
<feGaussianBlur in="BackgroundImageFix" stdDeviation="2"/>
<feComposite in2="SourceAlpha" operator="in" result="effect1_backgroundBlur_20_17624"/>
<feBlend mode="normal" in="SourceGraphic" in2="effect1_backgroundBlur_20_17624" result="shape"/>
<feColorMatrix in="SourceAlpha" type="matrix" values="0 0 0 0 0 0 0 0 0 0 0 0 0 0 0 0 0 0 127 0" result="hardAlpha"/>
<feOffset/>
<feGaussianBlur stdDeviation="2"/>
<feComposite in2="hardAlpha" operator="arithmetic" k2="-1" k3="1"/>
<feColorMatrix type="matrix" values="0 0 0 0 1 0 0 0 0 1 0 0 0 0 1 0 0 0 1 0"/>
<feBlend mode="normal" in2="shape" result="effect2_innerShadow_20_17624"/>
<feColorMatrix in="SourceAlpha" type="matrix" values="0 0 0 0 0 0 0 0 0 0 0 0 0 0 0 0 0 0 127 0" result="hardAlpha"/>
<feOffset dy="4"/>
<feGaussianBlur stdDeviation="4"/>
<feComposite in2="hardAlpha" operator="arithmetic" k2="-1" k3="1"/>
<feColorMatrix type="matrix" values="0 0 0 0 1 0 0 0 0 1 0 0 0 0 1 0 0 0 1 0"/>
<feBlend mode="normal" in2="effect2_innerShadow_20_17624" result="effect3_innerShadow_20_17624"/>
</filter>
</defs>
</svg>
