<svg width="96" height="96" viewBox="0 0 96 96" fill="none" xmlns="http://www.w3.org/2000/svg">
<g clip-path="url(#clip0_25_406)">
<mask id="mask0_25_406" style="mask-type:luminance" maskUnits="userSpaceOnUse" x="0" y="0" width="96" height="96">
<path d="M0 7.62939e-06H96V96H0V7.62939e-06Z" fill="white"/>
</mask>
<g mask="url(#mask0_25_406)">
<path d="M56.6369 36.3323C56.9204 36.7221 57.3618 36.9287 57.8095 36.9287C58.105 36.9287 58.4034 36.8385 58.6606 36.6514L71.4573 27.3409H90.688C91.4883 27.3409 92.1369 26.6921 92.1369 25.8921C92.1369 25.092 91.4883 24.4435 90.688 24.4435H72.4345V16.2825C72.4345 15.4825 71.786 14.8339 70.9859 14.8339C70.1859 14.8339 69.5373 15.4825 69.5373 16.2825V25.1546L56.956 34.3086C56.309 34.7792 56.1661 35.6852 56.6369 36.3323Z" fill="#E4E4F5"/>
<path d="M92.0402 69.6736H71.4572L58.6606 60.3631C58.0137 59.8923 57.1075 60.0354 56.6369 60.6823C56.1661 61.3293 56.3091 62.2353 56.956 62.7059L69.5372 71.8599V83.0983C69.5372 83.8983 70.1858 84.5469 70.9859 84.5469C71.7861 84.5469 72.4347 83.8983 72.4347 83.0983V72.5711H92.0402C92.8403 72.5711 93.4889 71.9225 93.4889 71.1224C93.4889 70.3222 92.8403 69.6736 92.0402 69.6736Z" fill="#E4E4F5"/>
<path d="M39.3631 60.6823C38.8925 60.0354 37.9865 59.8923 37.3394 60.3631L24.5427 69.6736H5.50508C4.70502 69.6736 4.05627 70.3224 4.05627 71.1224C4.05627 71.9225 4.70502 72.5711 5.50508 72.5711H23.5655V80.7804C23.5655 81.5804 24.214 82.229 25.0141 82.229C25.8141 82.229 26.4627 81.5804 26.4627 80.7804V71.8599L39.044 62.7059C39.691 62.2353 39.8339 61.3293 39.3631 60.6823Z" fill="#E4E4F5"/>
<path d="M5.50509 27.3409H24.5429L37.3394 36.6514C37.5967 36.8385 37.895 36.9287 38.1905 36.9287C38.6382 36.9287 39.0796 36.7219 39.3631 36.3323C39.8339 35.6852 39.691 34.7792 39.0442 34.3086L26.4627 25.1546V16.4275C26.4627 15.6274 25.8141 14.9786 25.0141 14.9786C24.214 14.9786 23.5655 15.6274 23.5655 16.4275V24.4435H5.50509C4.70502 24.4435 4.05627 25.092 4.05627 25.8921C4.05627 26.6923 4.70502 27.3409 5.50509 27.3409Z" fill="#E4E4F5"/>
<path d="M90.7123 49.4489C91.5123 49.4489 92.1611 48.8003 92.1611 48.0001C92.1611 47.2 91.5123 46.5514 90.7123 46.5514H75.827V37.4549H81.0543C81.8544 37.4549 82.503 36.8063 82.503 36.0062C82.503 35.2062 81.8544 34.5574 81.0543 34.5574H74.3782C73.5781 34.5574 72.9296 35.2062 72.9296 36.0062V46.5514H63.7995C62.9994 46.5514 62.3508 47.2 62.3508 48.0001C62.3508 48.8003 62.9994 49.4489 63.7995 49.4489H72.9296V59.9941C72.9296 60.7941 73.5781 61.4429 74.3782 61.4429H81.0543C81.8544 61.4429 82.503 60.7941 82.503 59.9941C82.503 59.194 81.8544 58.5454 81.0543 58.5454H75.827V49.4489H90.7123Z" fill="#E4E4F5"/>
<path d="M40.8031 18.6159H46.3032V30.4293C46.3032 31.2294 46.9518 31.8779 47.7521 31.8779C48.5521 31.8779 49.2007 31.2294 49.2007 30.4293V18.6159H55.1969C55.997 18.6159 56.6456 17.9673 56.6456 17.1671C56.6456 16.367 55.997 15.7184 55.1969 15.7184H49.2007V6.06049C49.2007 5.26043 48.5521 4.61187 47.7521 4.61187C46.9518 4.61187 46.3032 5.26043 46.3032 6.06049V15.7184H40.8031C40.0031 15.7184 39.3543 16.367 39.3543 17.1671C39.3543 17.9673 40.0031 18.6159 40.8031 18.6159Z" fill="#E4E4F5"/>
<path d="M15.1388 58.5454C14.3387 58.5454 13.6902 59.194 13.6902 59.9942C13.6902 60.7943 14.3387 61.4429 15.1388 61.4429H21.6218C22.4218 61.4429 23.0704 60.7943 23.0704 59.9942V49.4489H32.2005C33.0006 49.4489 33.6492 48.8003 33.6492 48.0002C33.6492 47.2002 33.0006 46.5514 32.2005 46.5514H23.0704V36.0062C23.0704 35.2062 22.4218 34.5574 21.6218 34.5574H15.1388C14.3387 34.5574 13.6902 35.2062 13.6902 36.0062C13.6902 36.8063 14.3387 37.4551 15.1388 37.4551H20.173V46.5514H5.67397C4.8739 46.5514 4.22534 47.2002 4.22534 48.0002C4.22534 48.8003 4.8739 49.4489 5.67397 49.4489H20.173V58.5454H15.1388Z" fill="#E4E4F5"/>
<path d="M55.2218 78.3987H49.4487V66.5852C49.4487 65.7852 48.8001 65.1366 48 65.1366C47.2 65.1366 46.5512 65.7852 46.5512 66.5852V78.3987H40.7783C39.9782 78.3987 39.3295 79.0472 39.3295 79.8475C39.3295 80.6476 39.9782 81.2961 40.7783 81.2961H46.5512V91.8715C46.5512 92.6718 47.2 93.3203 48 93.3203C48.8001 93.3203 49.4487 92.6718 49.4487 91.8715V81.2961H55.2218C56.0218 81.2961 56.6706 80.6476 56.6706 79.8475C56.6706 79.0472 56.0218 78.3987 55.2218 78.3987Z" fill="#E4E4F5"/>
<path d="M63.7995 57.6291V39.3854L48 30.2635L32.2005 39.3854V57.6291L48 66.751L63.7995 57.6291Z" fill="#05FFFC"/>
<path d="M48 30.2635L45.1026 31.9364L58.0048 39.3854V57.6291L45.1026 65.0781L48 66.751L63.7995 57.6291V39.3854L48 30.2635Z" fill="#13F0ED"/>
<path d="M43.7094 49.2777L44.6947 46.6906L45.671 49.2777H43.7094ZM46.2693 42.6569C46.2642 42.6436 46.2592 42.6305 46.2537 42.6175C45.9937 41.9849 45.3839 41.5763 44.6999 41.5763H44.6986C44.0142 41.5771 43.4043 41.9866 43.145 42.62C43.1405 42.631 43.1362 42.6421 43.1319 42.6532L39.299 52.7172C39.0142 53.4652 39.3894 54.302 40.1371 54.5868C40.8849 54.8718 41.7217 54.4962 42.0065 53.7485L42.6059 52.1752H46.7643L47.3566 53.7443C47.5756 54.3247 48.1269 54.682 48.7124 54.682C48.8821 54.682 49.0552 54.652 49.2236 54.5883C49.9721 54.3059 50.3501 53.4698 50.0675 52.7215L46.2693 42.6569Z" fill="white"/>
<path d="M53.4156 41.5763C52.6155 41.5763 51.9668 42.2249 51.9668 43.0251V53.2328C51.9668 54.0331 52.6155 54.6816 53.4156 54.6816C54.2157 54.6816 54.8644 54.0331 54.8644 53.2328V43.0251C54.8644 42.2249 54.2157 41.5763 53.4156 41.5763Z" fill="white"/>
<path d="M73.6418 13.506C73.6418 15.0396 72.3987 16.2827 70.8651 16.2827C69.3317 16.2827 68.0884 15.0396 68.0884 13.506C68.0884 11.9725 69.3317 10.7293 70.8651 10.7293C72.3987 10.7293 73.6418 11.9725 73.6418 13.506Z" fill="#05FFFC"/>
<path d="M96 25.8923C96 27.4258 94.7569 28.6689 93.2233 28.6689C91.6897 28.6689 90.4466 27.4258 90.4466 25.8923C90.4466 24.3587 91.6897 23.1156 93.2233 23.1156C94.7569 23.1156 96 24.3587 96 25.8923Z" fill="#05FFFC"/>
<path d="M73.6418 83.5085C73.6418 81.9749 72.3987 80.7318 70.8651 80.7318C69.3317 80.7318 68.0884 81.9749 68.0884 83.5085C68.0884 85.042 69.3317 86.2852 70.8651 86.2852C72.3987 86.2852 73.6418 85.042 73.6418 83.5085Z" fill="#05FFFC"/>
<path d="M96 71.1222C96 69.5887 94.7569 68.3456 93.2233 68.3456C91.6897 68.3456 90.4466 69.5887 90.4466 71.1222C90.4466 72.6558 91.6897 73.8989 93.2233 73.8989C94.7569 73.8989 96 72.6558 96 71.1222Z" fill="#05FFFC"/>
<path d="M22.3582 83.5085C22.3582 81.9749 23.6013 80.7318 25.1349 80.7318C26.6682 80.7318 27.9116 81.9749 27.9116 83.5085C27.9116 85.042 26.6682 86.2852 25.1349 86.2852C23.6013 86.2852 22.3582 85.042 22.3582 83.5085Z" fill="#05FFFC"/>
<path d="M0 71.1222C0 69.5887 1.24312 68.3456 2.77669 68.3456C4.31025 68.3456 5.55337 69.5887 5.55337 71.1222C5.55337 72.6558 4.31025 73.8989 2.77669 73.8989C1.24312 73.8989 0 72.6558 0 71.1222Z" fill="#05FFFC"/>
<path d="M22.3582 13.506C22.3582 15.0396 23.6013 16.2827 25.1349 16.2827C26.6682 16.2827 27.9116 15.0396 27.9116 13.506C27.9116 11.9725 26.6682 10.7293 25.1349 10.7293C23.6013 10.7293 22.3582 11.9725 22.3582 13.506Z" fill="#05FFFC"/>
<path d="M0 25.8923C0 27.4258 1.24312 28.6689 2.77669 28.6689C4.31025 28.6689 5.55337 27.4258 5.55337 25.8923C5.55337 24.3587 4.31025 23.1156 2.77669 23.1156C1.24312 23.1156 0 24.3587 0 25.8923Z" fill="#05FFFC"/>
<path d="M50.5286 3.28386C50.5286 4.81742 49.2855 6.06055 47.7519 6.06055C46.2183 6.06055 44.9752 4.81742 44.9752 3.28386C44.9752 1.7503 46.2183 0.507172 47.7519 0.507172C49.2855 0.507172 50.5286 1.7503 50.5286 3.28386Z" fill="#05FFFC"/>
<path d="M50.7767 92.7165C50.7767 94.25 49.5336 95.4932 48 95.4932C46.4665 95.4932 45.2233 94.25 45.2233 92.7165C45.2233 91.1829 46.4665 89.9398 48 89.9398C49.5336 89.9398 50.7767 91.1829 50.7767 92.7165Z" fill="#05FFFC"/>
<path d="M96 48.0002C96 49.5337 94.7569 50.7769 93.2233 50.7769C91.6897 50.7769 90.4466 49.5337 90.4466 48.0002C90.4466 46.4666 91.6897 45.2235 93.2233 45.2235C94.7569 45.2235 96 46.4666 96 48.0002Z" fill="#05FFFC"/>
<path d="M86.342 35.9338C86.342 37.4673 85.0989 38.7104 83.5653 38.7104C82.0319 38.7104 80.7886 37.4673 80.7886 35.9338C80.7886 34.4002 82.0319 33.1571 83.5653 33.1571C85.0989 33.1571 86.342 34.4002 86.342 35.9338Z" fill="#05FFFC"/>
<path d="M86.342 59.9216C86.342 61.4551 85.0989 62.6982 83.5653 62.6982C82.0319 62.6982 80.7886 61.4551 80.7886 59.9216C80.7886 58.388 82.0319 57.1449 83.5653 57.1449C85.0989 57.1449 86.342 58.388 86.342 59.9216Z" fill="#05FFFC"/>
<path d="M60.7502 17.1672C60.7502 18.7007 59.5071 19.9438 57.9735 19.9438C56.4399 19.9438 55.1968 18.7007 55.1968 17.1672C55.1968 15.6336 56.4399 14.3905 57.9735 14.3905C59.5071 14.3905 60.7502 15.6336 60.7502 17.1672Z" fill="#05FFFC"/>
<path d="M40.8031 17.1672C40.8031 18.7007 39.56 19.9438 38.0264 19.9438C36.4931 19.9438 35.2498 18.7007 35.2498 17.1672C35.2498 15.6336 36.4931 14.3905 38.0264 14.3905C39.56 14.3905 40.8031 15.6336 40.8031 17.1672Z" fill="#05FFFC"/>
<path d="M0 48.507C0 46.9734 1.24312 45.7303 2.77669 45.7303C4.31025 45.7303 5.55337 46.9734 5.55337 48.507C5.55337 50.0406 4.31025 51.2837 2.77669 51.2837C1.24312 51.2837 0 50.0406 0 48.507Z" fill="#05FFFC"/>
<path d="M9.65799 59.9216C9.65799 58.388 10.9011 57.1449 12.4347 57.1449C13.9681 57.1449 15.2114 58.388 15.2114 59.9216C15.2114 61.4551 13.9681 62.6982 12.4347 62.6982C10.9011 62.6982 9.65799 61.4551 9.65799 59.9216Z" fill="#05FFFC"/>
<path d="M9.65799 35.9338C9.65799 34.4002 10.9011 33.1571 12.4347 33.1571C13.9681 33.1571 15.2114 34.4002 15.2114 35.9338C15.2114 37.4673 13.9681 38.7104 12.4347 38.7104C10.9011 38.7104 9.65799 37.4673 9.65799 35.9338Z" fill="#05FFFC"/>
<path d="M35.2498 79.8473C35.2498 78.3138 36.4929 77.0706 38.0265 77.0706C39.5601 77.0706 40.8032 78.3138 40.8032 79.8473C40.8032 81.3809 39.5601 82.624 38.0265 82.624C36.4929 82.624 35.2498 81.3809 35.2498 79.8473Z" fill="#05FFFC"/>
<path d="M55.1969 79.8473C55.1969 78.3138 56.44 77.0706 57.9736 77.0706C59.5069 77.0706 60.7502 78.3138 60.7502 79.8473C60.7502 81.3809 59.5069 82.624 57.9736 82.624C56.44 82.624 55.1969 81.3809 55.1969 79.8473Z" fill="#05FFFC"/>
</g>
</g>
<defs>
<clipPath id="clip0_25_406">
<rect width="96" height="96" fill="white"/>
</clipPath>
</defs>
</svg>
