<svg width="96" height="96" viewBox="0 0 96 96" fill="none" xmlns="http://www.w3.org/2000/svg">
<g clip-path="url(#clip0_25_543)">
<path d="M3.01389 55.4893C6.5252 67.4899 16.6465 91.9701 33.7493 89.7728C50.9029 87.5687 44.2041 65.4493 59.907 62.4176C66.8196 61.083 71.5052 73.0468 78.4331 72.6746C87.3559 72.1952 91.8975 63.3628 94.3909 55.9376C99.6778 40.1936 91.7605 13.4966 73.2298 8.87289C57.0591 4.83808 55.1676 24.5957 41.107 18.8569C33.204 15.6313 33.9936 5.99889 24.3685 4.05527C-4.74993 -1.82455 -1.65842 39.5209 3.01389 55.4893Z" fill="url(#paint0_linear_25_543)"/>
<path opacity="0.1" d="M65.6685 92.5131H30.3315C27.2249 92.5131 24.7065 89.9947 24.7065 86.8881V15.5107C24.7065 12.4041 27.2249 9.88574 30.3315 9.88574H65.6685C68.7752 9.88574 71.2935 12.4041 71.2935 15.5107V86.8879C71.2935 89.9946 68.7752 92.5131 65.6685 92.5131Z" fill="#2626BC"/>
<path d="M65.6685 88.0131H30.3315C27.2249 88.0131 24.7065 85.4947 24.7065 82.3881V11.0107C24.7065 7.90405 27.2249 5.38574 30.3315 5.38574H65.6685C68.7752 5.38574 71.2935 7.90405 71.2935 11.0107V82.3879C71.2935 85.4946 68.7752 88.0131 65.6685 88.0131Z" fill="#6583FE"/>
<path d="M24.7069 13.4312H71.2932V79.9674H24.7069V13.4312Z" fill="#2D58E0"/>
<path d="M44.8548 37.859H35.303C34.2674 37.859 33.428 37.0196 33.428 35.984V27.1694C33.428 26.1339 34.2674 25.2944 35.303 25.2944H44.8548C45.8904 25.2944 46.7298 26.1339 46.7298 27.1694V35.984C46.7298 37.0196 45.8904 37.859 44.8548 37.859Z" fill="#1F50C9"/>
<path d="M60.777 37.8063H51.2252C50.1897 37.8063 49.3502 36.9668 49.3502 35.9313V27.1167C49.3502 26.0811 50.1897 25.2417 51.2252 25.2417H60.777C61.8126 25.2417 62.652 26.0811 62.652 27.1167V35.9313C62.652 36.9668 61.8126 37.8063 60.777 37.8063Z" fill="#1F50C9"/>
<path d="M71.2403 25.2417V37.8061H67.1997C66.1647 37.8061 65.3247 36.9661 65.3247 35.9311V27.1167C65.3247 26.0817 66.1647 25.2417 67.1997 25.2417H71.2403Z" fill="#1F50C9"/>
<path d="M58.095 17.4487H37.905C37.3873 17.4487 36.9675 17.8685 36.9675 18.3862C36.9675 18.9039 37.3873 19.3237 37.905 19.3237H58.095C58.6127 19.3237 59.0325 18.9039 59.0325 18.3862C59.0325 17.8685 58.6129 17.4487 58.095 17.4487Z" fill="white"/>
<path d="M44.8548 35.8878H35.303C34.2674 35.8878 33.428 35.0484 33.428 34.0128V25.1982C33.428 24.1627 34.2674 23.3232 35.303 23.3232H44.8548C45.8904 23.3232 46.7298 24.1627 46.7298 25.1982V34.0128C46.7298 35.0484 45.8904 35.8878 44.8548 35.8878Z" fill="#FF7EB8"/>
<path d="M42.8615 31.9697H38.9838C38.4661 31.9697 38.0463 32.3895 38.0463 32.9072C38.0463 33.4249 38.4661 33.8447 38.9838 33.8447H42.8615C43.3791 33.8447 43.799 33.4249 43.799 32.9072C43.799 32.3895 43.3791 31.9697 42.8615 31.9697Z" fill="white"/>
<path d="M42.8615 28.9077H41.7963C41.2786 28.9077 40.8588 29.3275 40.8588 29.8452C40.8588 30.3629 41.2786 30.7827 41.7963 30.7827H42.8615C43.3791 30.7827 43.799 30.3629 43.799 29.8452C43.799 29.3275 43.3791 28.9077 42.8615 28.9077Z" fill="white"/>
<path d="M60.7772 35.8353H51.2253C50.1898 35.8353 49.3503 34.9958 49.3503 33.9603V25.1455C49.3503 24.1099 50.1898 23.2705 51.2253 23.2705H60.7772C61.8127 23.2705 62.6522 24.1099 62.6522 25.1455V33.9601C62.6522 34.9956 61.8127 35.8353 60.7772 35.8353Z" fill="#02FFB3"/>
<path d="M58.7838 31.917H54.9061C54.3884 31.917 53.9686 32.3368 53.9686 32.8545C53.9686 33.3722 54.3884 33.792 54.9061 33.792H58.7838C59.3015 33.792 59.7213 33.3722 59.7213 32.8545C59.7213 32.3368 59.3015 31.917 58.7838 31.917Z" fill="white"/>
<path d="M58.7838 28.855H57.7186C57.2009 28.855 56.7811 29.2748 56.7811 29.7925C56.7811 30.3102 57.2009 30.73 57.7186 30.73H58.7838C59.3015 30.73 59.7213 30.3102 59.7213 29.7925C59.7213 29.2748 59.3015 28.855 58.7838 28.855Z" fill="white"/>
<path d="M71.2403 23.2705V35.8349H67.1997C66.1647 35.8349 65.3247 34.9949 65.3247 33.9599V25.1455C65.3247 24.1105 66.1647 23.2705 67.1997 23.2705H71.2403Z" fill="#9FB0FE"/>
<path d="M24.7069 79.9674V45.3286C24.7069 42.7411 26.805 40.6411 29.3944 40.6411H66.6057C69.195 40.6411 71.2932 42.7411 71.2932 45.3286V79.9674H24.7069Z" fill="white"/>
<path d="M65.6685 88.9502H30.3315C26.713 88.9502 23.769 86.0062 23.769 82.3877V11.0107C23.769 7.39218 26.713 4.44824 30.3315 4.44824H65.6685C69.2871 4.44824 72.231 7.39218 72.231 11.0107V82.3879C72.231 86.0062 69.2871 88.9502 65.6685 88.9502ZM30.3315 6.32324C27.7469 6.32324 25.644 8.42605 25.644 11.0107V82.3879C25.644 84.9725 27.7469 87.0754 30.3315 87.0754H65.6685C68.2532 87.0754 70.356 84.9725 70.356 82.3879V11.0107C70.356 8.42605 68.2532 6.32324 65.6685 6.32324H30.3315Z" fill="#2626BC"/>
<path d="M51.278 10.5176H44.7219C44.2042 10.5176 43.7844 10.0978 43.7844 9.58008C43.7844 9.06239 44.2042 8.64258 44.7219 8.64258H51.278C51.7957 8.64258 52.2155 9.06239 52.2155 9.58008C52.2155 10.0978 51.7957 10.5176 51.278 10.5176Z" fill="#B7C5FF"/>
<path d="M55.6525 10.5178C56.1704 10.5178 56.5903 10.0979 56.5903 9.57996C56.5903 9.06199 56.1704 8.64209 55.6525 8.64209C55.1345 8.64209 54.7146 9.06199 54.7146 9.57996C54.7146 10.0979 55.1345 10.5178 55.6525 10.5178Z" fill="#B7C5FF"/>
<path d="M43.9865 46.6992H40.1088C39.5911 46.6992 39.1713 47.119 39.1713 47.6367C39.1713 48.1544 39.5911 48.5742 40.1088 48.5742H43.9865C44.5041 48.5742 44.924 48.1544 44.924 47.6367C44.924 47.119 44.5041 46.6992 43.9865 46.6992Z" fill="#00D890"/>
<path d="M63.1115 50.5005H40.1088C39.5911 50.5005 39.1713 50.9203 39.1713 51.438C39.1713 51.9557 39.5911 52.3755 40.1088 52.3755H63.1115C63.6291 52.3755 64.049 51.9557 64.049 51.438C64.049 50.9203 63.6291 50.5005 63.1115 50.5005Z" fill="#9FB0FE"/>
<path d="M34.6737 52.3757H30.8727C30.355 52.3757 29.9352 51.9559 29.9352 51.4382V47.6372C29.9352 47.1195 30.355 46.6997 30.8727 46.6997H34.6737C35.1914 46.6997 35.6112 47.1195 35.6112 47.6372V51.4382C35.6112 51.9559 35.1914 52.3757 34.6737 52.3757Z" fill="#02FFB3"/>
<path d="M43.9865 58.3135H40.1088C39.5911 58.3135 39.1713 58.7333 39.1713 59.251C39.1713 59.7687 39.5911 60.1885 40.1088 60.1885H43.9865C44.5041 60.1885 44.924 59.7687 44.924 59.251C44.924 58.7333 44.5041 58.3135 43.9865 58.3135Z" fill="#FF5BA8"/>
<path d="M63.1115 62.1143H40.1088C39.5911 62.1143 39.1713 62.5341 39.1713 63.0518C39.1713 63.5694 39.5911 63.9893 40.1088 63.9893H63.1115C63.6291 63.9893 64.049 63.5694 64.049 63.0518C64.049 62.5341 63.6291 62.1143 63.1115 62.1143Z" fill="#9FB0FE"/>
<path d="M34.6737 63.9895H30.8727C30.355 63.9895 29.9352 63.5697 29.9352 63.052V59.251C29.9352 58.7333 30.355 58.3135 30.8727 58.3135H34.6737C35.1914 58.3135 35.6112 58.7333 35.6112 59.251V63.052C35.6112 63.5697 35.1914 63.9895 34.6737 63.9895Z" fill="#FF7EB8"/>
<path d="M43.9865 69.9277H40.1088C39.5911 69.9277 39.1713 70.3475 39.1713 70.8652C39.1713 71.3829 39.5911 71.8027 40.1088 71.8027H43.9865C44.5041 71.8027 44.924 71.3829 44.924 70.8652C44.924 70.3475 44.5041 69.9277 43.9865 69.9277Z" fill="#6583FE"/>
<path d="M63.1115 73.7285H40.1088C39.5911 73.7285 39.1713 74.1483 39.1713 74.666C39.1713 75.1837 39.5911 75.6035 40.1088 75.6035H63.1115C63.6291 75.6035 64.049 75.1837 64.049 74.666C64.049 74.1483 63.6291 73.7285 63.1115 73.7285Z" fill="#9FB0FE"/>
<path d="M34.6737 75.6037H30.8727C30.355 75.6037 29.9352 75.1839 29.9352 74.6662V70.8652C29.9352 70.3475 30.355 69.9277 30.8727 69.9277H34.6737C35.1914 69.9277 35.6112 70.3475 35.6112 70.8652V74.6662C35.6112 75.1839 35.1914 75.6037 34.6737 75.6037Z" fill="#9FB0FE"/>
<path d="M78.438 74.4825C76.9605 74.4825 75.7584 73.2805 75.7584 71.8028C75.7584 70.3251 76.9605 69.123 78.438 69.123C79.9155 69.123 81.1175 70.3251 81.1175 71.8028C81.1175 73.2805 79.9155 74.4825 78.438 74.4825ZM78.438 70.9982C77.9944 70.9982 77.6334 71.3592 77.6334 71.803C77.6334 72.2468 77.9944 72.6077 78.438 72.6077C78.8816 72.6077 79.2425 72.2468 79.2425 71.803C79.2425 71.3592 78.8816 70.9982 78.438 70.9982Z" fill="#6583FE"/>
<path d="M15.5474 34.5767C15.0297 34.5767 14.6099 34.1568 14.6099 33.6392C14.6099 33.0187 14.1053 32.5142 13.4849 32.5142C12.9672 32.5142 12.5474 32.0943 12.5474 31.5767C12.5474 31.059 12.9672 30.6392 13.4849 30.6392C14.1053 30.6392 14.6099 30.1346 14.6099 29.5142C14.6099 28.9965 15.0297 28.5767 15.5474 28.5767C16.0651 28.5767 16.4849 28.9965 16.4849 29.5142C16.4849 30.1346 16.9894 30.6392 17.6099 30.6392C18.1276 30.6392 18.5474 31.059 18.5474 31.5767C18.5474 32.0943 18.1276 32.5142 17.6099 32.5142C16.9894 32.5142 16.4849 33.0187 16.4849 33.6392C16.4849 34.1568 16.0651 34.5767 15.5474 34.5767Z" fill="#01ECA5"/>
<path d="M81.1222 82.9673C80.6043 82.9673 80.1847 82.5475 80.1847 82.0298C80.1847 81.4093 79.6801 80.9048 79.0597 80.9048C78.5418 80.9048 78.1222 80.485 78.1222 79.9673C78.1222 79.4496 78.5418 79.0298 79.0597 79.0298C79.6801 79.0298 80.1847 78.5252 80.1847 77.9048C80.1847 77.3871 80.6043 76.9673 81.1222 76.9673C81.6401 76.9673 82.0597 77.3871 82.0597 77.9048C82.0597 78.5252 82.5643 79.0298 83.1847 79.0298C83.7026 79.0298 84.1222 79.4496 84.1222 79.9673C84.1222 80.485 83.7026 80.9048 83.1847 80.9048C82.5643 80.9048 82.0597 81.4093 82.0597 82.0298C82.0597 82.5475 81.6401 82.9673 81.1222 82.9673Z" fill="#01ECA5"/>
<path d="M83.1847 28.2417C82.6668 28.2417 82.2472 27.8219 82.2472 27.3042C82.2472 26.6838 81.7426 26.1792 81.1222 26.1792C80.6043 26.1792 80.1847 25.7594 80.1847 25.2417C80.1847 24.724 80.6043 24.3042 81.1222 24.3042C81.7426 24.3042 82.2472 23.7996 82.2472 23.1792C82.2472 22.6615 82.6668 22.2417 83.1847 22.2417C83.7026 22.2417 84.1222 22.6615 84.1222 23.1792C84.1222 23.7996 84.6268 24.3042 85.2472 24.3042C85.7651 24.3042 86.1847 24.724 86.1847 25.2417C86.1847 25.7594 85.7651 26.1792 85.2472 26.1792C84.6268 26.1792 84.1222 26.6838 84.1222 27.3042C84.1222 27.8219 83.7026 28.2417 83.1847 28.2417Z" fill="#FF5BA8"/>
<path d="M13.6176 43.8198C13.0999 43.8198 12.6801 43.4 12.6801 42.8823C12.6801 42.2619 12.1755 41.7573 11.5551 41.7573C11.0374 41.7573 10.6176 41.3375 10.6176 40.8198C10.6176 40.3021 11.0374 39.8823 11.5551 39.8823C12.1755 39.8823 12.6801 39.3778 12.6801 38.7573C12.6801 38.2396 13.0999 37.8198 13.6176 37.8198C14.1352 37.8198 14.5551 38.2396 14.5551 38.7573C14.5551 39.3778 15.0596 39.8823 15.6801 39.8823C16.1977 39.8823 16.6176 40.3021 16.6176 40.8198C16.6176 41.3375 16.1977 41.7573 15.6801 41.7573C15.0596 41.7573 14.5551 42.2619 14.5551 42.8823C14.5551 43.4 14.1354 43.8198 13.6176 43.8198Z" fill="#FF5BA8"/>
</g>
<defs>
<linearGradient id="paint0_linear_25_543" x1="4.46645" y1="63.0621" x2="86.1621" y2="15.8951" gradientUnits="userSpaceOnUse">
<stop stop-color="#DCFDEE" stop-opacity="0"/>
<stop offset="0.6288" stop-color="#D2F3E4"/>
</linearGradient>
<clipPath id="clip0_25_543">
<rect width="96" height="96" fill="white"/>
</clipPath>
</defs>
</svg>
