<svg width="96" height="96" viewBox="0 0 96 96" fill="none" xmlns="http://www.w3.org/2000/svg">
<g clip-path="url(#clip0_25_478)">
<path d="M3.01388 57.1142C6.52519 69.1147 16.6464 93.5949 33.7493 91.3976C50.9029 89.1936 44.2041 67.0742 59.907 64.0425C66.8196 62.7079 71.5052 74.6717 78.4331 74.2995C87.3559 73.8201 91.8975 64.9877 94.3909 57.5625C99.6778 41.8185 91.7604 15.1215 73.23 10.4979C57.0593 6.46311 55.1678 26.2207 41.1071 20.4819C33.2042 17.2564 33.9938 7.62392 24.3686 5.6803C-4.74993 -0.199702 -1.65843 41.1459 3.01388 57.1142Z" fill="url(#paint0_linear_25_478)"/>
<path opacity="0.1" d="M85.4006 85.0992H10.5994C9.04612 85.0992 7.78687 83.8399 7.78687 82.2867V23.3618C7.78687 21.8086 9.04612 20.5493 10.5994 20.5493H85.4006C86.9539 20.5493 88.2131 21.8086 88.2131 23.3618V82.2867C88.2131 83.8399 86.954 85.0992 85.4006 85.0992Z" fill="#2626BC"/>
<path d="M88.2131 18.8623V77.786C88.2131 79.3404 86.9531 80.5985 85.4006 80.5985H10.5994C9.04687 80.5985 7.78687 79.3404 7.78687 77.786V18.8623C7.78687 17.3079 9.04687 16.0498 10.5994 16.0498H85.4006C86.9531 16.0498 88.2131 17.3079 88.2131 18.8623Z" fill="white"/>
<path d="M88.2131 38.3118V77.7861C88.2131 79.3405 86.9531 80.5986 85.4006 80.5986H14.8387C17.8856 75.5774 24.3206 68.5893 36.4612 68.7936C55.3613 69.1105 46.9144 43.6649 63.8081 45.4593C80.115 47.1936 77.1375 35.2499 88.2131 38.3118Z" fill="#8399FE"/>
<path d="M76.4118 49.6613C76.4118 54.5345 72.4612 58.4832 67.5881 58.4832C62.715 58.4832 58.7643 54.5345 58.7643 49.6613C58.7643 48.2045 59.1187 46.8282 59.745 45.617C60.9131 45.3601 62.2537 45.2945 63.8081 45.4595C68.8312 45.9938 72.0243 45.2307 74.3625 44.0063C75.6412 45.5382 76.4118 47.5107 76.4118 49.6613Z" fill="#6583FE"/>
<path d="M32.9081 80.5993H14.7885V64.3794C14.7885 63.8617 15.2083 63.4419 15.726 63.4419H31.9706C32.4883 63.4419 32.9081 63.8617 32.9081 64.3794V80.5993Z" fill="#D2DEFF"/>
<path d="M57.0598 80.5993H38.9402V64.3794C38.9402 63.8617 39.36 63.4419 39.8777 63.4419H56.1223C56.64 63.4419 57.0598 63.8617 57.0598 64.3794V80.5993Z" fill="#D2DEFF"/>
<path d="M81.2115 80.5993H63.0919V64.3794C63.0919 63.8617 63.5117 63.4419 64.0294 63.4419H80.274C80.7917 63.4419 81.2115 63.8617 81.2115 64.3794V80.5993Z" fill="#D2DEFF"/>
<path d="M88.2131 29.0455V18.8618C88.2131 17.3086 86.9539 16.0493 85.4006 16.0493H10.5994C9.04612 16.0493 7.78687 17.3086 7.78687 18.8618V29.0455H88.2131Z" fill="#01ECA5"/>
<path d="M85.4006 81.5367H10.5994C8.53162 81.5367 6.84937 79.8544 6.84937 77.7867V18.8618C6.84937 16.7941 8.53162 15.1118 10.5994 15.1118H85.4006C87.4684 15.1118 89.1506 16.7941 89.1506 18.8618V77.7867C89.1506 79.8544 87.4684 81.5367 85.4006 81.5367ZM10.5994 16.9868C9.56549 16.9868 8.72437 17.8279 8.72437 18.8618V77.7867C8.72437 78.8206 9.56549 79.6617 10.5994 79.6617H85.4006C86.4345 79.6617 87.2756 78.8206 87.2756 77.7867V18.8618C87.2756 17.8279 86.4345 16.9868 85.4006 16.9868H10.5994Z" fill="#2626BC"/>
<path d="M16.0543 25.0122C17.1831 25.0122 18.0983 24.0971 18.0983 22.9683C18.0983 21.8394 17.1831 20.9243 16.0543 20.9243C14.9255 20.9243 14.0104 21.8394 14.0104 22.9683C14.0104 24.0971 14.9255 25.0122 16.0543 25.0122Z" fill="#FF5BA8"/>
<path d="M22.5795 25.0122C23.7084 25.0122 24.6235 24.0971 24.6235 22.9683C24.6235 21.8394 23.7084 20.9243 22.5795 20.9243C21.4507 20.9243 20.5356 21.8394 20.5356 22.9683C20.5356 24.0971 21.4507 25.0122 22.5795 25.0122Z" fill="white"/>
<path d="M29.1045 25.0122C30.2333 25.0122 31.1484 24.0971 31.1484 22.9683C31.1484 21.8394 30.2333 20.9243 29.1045 20.9243C27.9756 20.9243 27.0605 21.8394 27.0605 22.9683C27.0605 24.0971 27.9756 25.0122 29.1045 25.0122Z" fill="#97FFD2"/>
<path d="M81.052 25.2647H55.5223V20.6719H81.0522C81.5698 20.6719 81.9897 21.0917 81.9897 21.6094V24.3274C81.9895 24.8451 81.5698 25.2647 81.052 25.2647Z" fill="#DCFDEE"/>
<path d="M55.6479 20.7302C54.6568 19.739 53.0441 19.739 52.053 20.7302C51.0619 21.7213 51.0619 23.334 52.053 24.3251C52.8099 25.082 53.9285 25.2588 54.8567 24.8598L55.6719 25.6751C56.0379 26.0411 56.6317 26.0411 56.9977 25.6751C57.3637 25.3091 57.3637 24.7153 56.9977 24.3493L56.1825 23.534C56.5817 22.6057 56.4049 21.4871 55.6479 20.7302ZM53.3788 22.056C53.6389 21.7959 54.062 21.7959 54.3221 22.056C54.5822 22.316 54.5822 22.7392 54.3221 22.9993C54.062 23.2593 53.6389 23.2593 53.3788 22.9993C53.1187 22.7392 53.1187 22.316 53.3788 22.056Z" fill="white"/>
<path d="M23.8483 71.4581C25.0145 71.4581 25.9599 70.5127 25.9599 69.3465C25.9599 68.1803 25.0145 67.2349 23.8483 67.2349C22.6821 67.2349 21.7367 68.1803 21.7367 69.3465C21.7367 70.5127 22.6821 71.4581 23.8483 71.4581Z" fill="white"/>
<path d="M27.4746 74.0859H20.2219C19.7042 74.0859 19.2844 74.5058 19.2844 75.0234C19.2844 75.5411 19.7042 75.9609 20.2219 75.9609H27.4746C27.9922 75.9609 28.4121 75.5411 28.4121 75.0234C28.4121 74.5058 27.9924 74.0859 27.4746 74.0859Z" fill="#8399FE"/>
<path d="M48 71.4581C49.1662 71.4581 50.1116 70.5127 50.1116 69.3465C50.1116 68.1803 49.1662 67.2349 48 67.2349C46.8338 67.2349 45.8884 68.1803 45.8884 69.3465C45.8884 70.5127 46.8338 71.4581 48 71.4581Z" fill="white"/>
<path d="M51.6262 74.0859H44.3737C43.856 74.0859 43.4362 74.5058 43.4362 75.0234C43.4362 75.5411 43.856 75.9609 44.3737 75.9609H51.6264C52.1441 75.9609 52.5639 75.5411 52.5639 75.0234C52.5639 74.5058 52.1441 74.0859 51.6262 74.0859Z" fill="#8399FE"/>
<path d="M72.1517 71.4581C73.3179 71.4581 74.2633 70.5127 74.2633 69.3465C74.2633 68.1803 73.3179 67.2349 72.1517 67.2349C70.9854 67.2349 70.04 68.1803 70.04 69.3465C70.04 70.5127 70.9854 71.4581 72.1517 71.4581Z" fill="white"/>
<path d="M75.7779 74.0859H68.5252C68.0075 74.0859 67.5877 74.5058 67.5877 75.0234C67.5877 75.5411 68.0075 75.9609 68.5252 75.9609H75.7779C76.2956 75.9609 76.7154 75.5411 76.7154 75.0234C76.7154 74.5058 76.2958 74.0859 75.7779 74.0859Z" fill="#8399FE"/>
<path d="M44.4097 59.0156H18.7014C17.6659 59.0156 16.8264 58.1762 16.8264 57.1406V56.0513C16.8264 55.0157 17.6659 54.1763 18.7014 54.1763H44.4095C45.4451 54.1763 46.2845 55.0157 46.2845 56.0513V57.1406C46.2847 58.1762 45.4451 59.0156 44.4097 59.0156Z" fill="#FF7EB8"/>
<path d="M37.3916 47.7856H17.7639C17.2462 47.7856 16.8264 48.2055 16.8264 48.7231C16.8264 49.2408 17.2462 49.6606 17.7639 49.6606H37.3916C37.9093 49.6606 38.3291 49.2408 38.3291 48.7231C38.3291 48.2055 37.9093 47.7856 37.3916 47.7856Z" fill="#8399FE"/>
<path d="M32.8916 44.1431H17.7639C17.2462 44.1431 16.8264 44.5629 16.8264 45.0806C16.8264 45.5983 17.2462 46.0181 17.7639 46.0181H32.8916C33.4093 46.0181 33.8291 45.5983 33.8291 45.0806C33.8291 44.5629 33.4093 44.1431 32.8916 44.1431Z" fill="#8399FE"/>
<path d="M19.9541 39.7656H17.7639C17.2462 39.7656 16.8264 40.1854 16.8264 40.7031C16.8264 41.2208 17.2462 41.6406 17.7639 41.6406H19.9541C20.4718 41.6406 20.8916 41.2208 20.8916 40.7031C20.8916 40.1854 20.4718 39.7656 19.9541 39.7656Z" fill="#FF7EB8"/>
<path d="M31.2041 33.375H17.7639C17.2462 33.375 16.8264 33.7948 16.8264 34.3125C16.8264 34.8302 17.2462 35.25 17.7639 35.25H31.2041C31.7218 35.25 32.1416 34.8302 32.1416 34.3125C32.1416 33.7948 31.7218 33.375 31.2041 33.375Z" fill="#02FFB3"/>
<path d="M67.5879 55.055C72.4609 55.055 76.4113 51.1046 76.4113 46.2316C76.4113 41.3586 72.4609 37.4082 67.5879 37.4082C62.7149 37.4082 58.7645 41.3586 58.7645 46.2316C58.7645 51.1046 62.7149 55.055 67.5879 55.055Z" fill="#02FFB3"/>
<path d="M70.0691 52.8064C70.5871 52.8064 71.007 52.3865 71.007 51.8685C71.007 51.3506 70.5871 50.9307 70.0691 50.9307C69.5511 50.9307 69.1312 51.3506 69.1312 51.8685C69.1312 52.3865 69.5511 52.8064 70.0691 52.8064Z" fill="white"/>
<path d="M74.3981 52.8064C74.9161 52.8064 75.336 52.3865 75.336 51.8685C75.336 51.3506 74.9161 50.9307 74.3981 50.9307C73.8801 50.9307 73.4602 51.3506 73.4602 51.8685C73.4602 52.3865 73.8801 52.8064 74.3981 52.8064Z" fill="white"/>
<path d="M78.7269 52.8064C79.2449 52.8064 79.6648 52.3865 79.6648 51.8685C79.6648 51.3506 79.2449 50.9307 78.7269 50.9307C78.209 50.9307 77.7891 51.3506 77.7891 51.8685C77.7891 52.3865 78.209 52.8064 78.7269 52.8064Z" fill="white"/>
<path d="M72.2336 49.322C72.7516 49.322 73.1715 48.9021 73.1715 48.3842C73.1715 47.8662 72.7516 47.4463 72.2336 47.4463C71.7156 47.4463 71.2957 47.8662 71.2957 48.3842C71.2957 48.9021 71.7156 49.322 72.2336 49.322Z" fill="white"/>
<path d="M76.5626 49.322C77.0806 49.322 77.5005 48.9021 77.5005 48.3842C77.5005 47.8662 77.0806 47.4463 76.5626 47.4463C76.0447 47.4463 75.6248 47.8662 75.6248 48.3842C75.6248 48.9021 76.0447 49.322 76.5626 49.322Z" fill="white"/>
<path d="M72.2336 56.2908C72.7516 56.2908 73.1715 55.8709 73.1715 55.3529C73.1715 54.8349 72.7516 54.415 72.2336 54.415C71.7156 54.415 71.2957 54.8349 71.2957 55.3529C71.2957 55.8709 71.7156 56.2908 72.2336 56.2908Z" fill="white"/>
<path d="M76.5626 56.2908C77.0806 56.2908 77.5005 55.8709 77.5005 55.3529C77.5005 54.8349 77.0806 54.415 76.5626 54.415C76.0447 54.415 75.6248 54.8349 75.6248 55.3529C75.6248 55.8709 76.0447 56.2908 76.5626 56.2908Z" fill="white"/>
<path d="M84.0984 11.2299C82.6209 11.2299 81.4187 10.0279 81.4187 8.55017C81.4187 7.07267 82.6208 5.87061 84.0984 5.87061C85.5761 5.87061 86.7782 7.07267 86.7782 8.55017C86.778 10.0279 85.5759 11.2299 84.0984 11.2299ZM84.0984 7.74561C83.6548 7.74561 83.2937 8.10654 83.2937 8.55017C83.2937 8.99379 83.6546 9.35492 84.0984 9.35492C84.5423 9.35492 84.9032 8.99379 84.9032 8.55017C84.9032 8.10654 84.5421 7.74561 84.0984 7.74561Z" fill="#FF5BA8"/>
<path d="M18.8591 92.2001C17.3816 92.2001 16.1794 90.9981 16.1794 89.5206C16.1794 88.0429 17.3814 86.8408 18.8591 86.8408C20.3368 86.8408 21.5389 88.0429 21.5389 89.5206C21.5387 90.9981 20.3366 92.2001 18.8591 92.2001ZM18.8591 88.7158C18.4155 88.7158 18.0544 89.0769 18.0544 89.5206C18.0544 89.9642 18.4153 90.3251 18.8591 90.3251C19.3029 90.3251 19.6639 89.9642 19.6639 89.5206C19.6639 89.0769 19.3028 88.7158 18.8591 88.7158Z" fill="#6583FE"/>
<path d="M28.0894 92.2001C26.6119 92.2001 25.4096 90.9981 25.4096 89.5206C25.4096 88.0429 26.6117 86.8408 28.0894 86.8408C29.567 86.8408 30.7691 88.0429 30.7691 89.5206C30.7691 90.9981 29.5669 92.2001 28.0894 92.2001ZM28.0894 88.7158C27.6457 88.7158 27.2846 89.0769 27.2846 89.5206C27.2846 89.9642 27.6455 90.3251 28.0894 90.3251C28.5332 90.3251 28.8941 89.9642 28.8941 89.5206C28.8941 89.0769 28.533 88.7158 28.0894 88.7158Z" fill="#01ECA5"/>
<path d="M45.4476 9.7998C44.9299 9.7998 44.5101 9.38018 44.5101 8.8623C44.5101 8.24187 44.0055 7.7373 43.3851 7.7373C42.8674 7.7373 42.4476 7.31768 42.4476 6.7998C42.4476 6.28193 42.8674 5.8623 43.3851 5.8623C44.0055 5.8623 44.5101 5.35774 44.5101 4.7373C44.5101 4.21943 44.9299 3.7998 45.4476 3.7998C45.9653 3.7998 46.3851 4.21943 46.3851 4.7373C46.3851 5.35774 46.8896 5.8623 47.5101 5.8623C48.0278 5.8623 48.4476 6.28193 48.4476 6.7998C48.4476 7.31768 48.0278 7.7373 47.5101 7.7373C46.8896 7.7373 46.3851 8.24187 46.3851 8.8623C46.3851 9.38018 45.9653 9.7998 45.4476 9.7998Z" fill="#01ECA5"/>
<path d="M54.0637 12.1045C53.546 12.1045 53.1262 11.6849 53.1262 11.167C53.1262 10.5466 52.6217 10.042 52.0012 10.042C51.4835 10.042 51.0637 9.62237 51.0637 9.10449C51.0637 8.58662 51.4835 8.16699 52.0012 8.16699C52.6217 8.16699 53.1262 7.66243 53.1262 7.04199C53.1262 6.52412 53.546 6.10449 54.0637 6.10449C54.5814 6.10449 55.0012 6.52412 55.0012 7.04199C55.0012 7.66243 55.5058 8.16699 56.1262 8.16699C56.6439 8.16699 57.0637 8.58662 57.0637 9.10449C57.0637 9.62237 56.6439 10.042 56.1262 10.042C55.5058 10.042 55.0012 10.5466 55.0012 11.167C55.0012 11.6849 54.5814 12.1045 54.0637 12.1045Z" fill="#FF5BA8"/>
</g>
<defs>
<linearGradient id="paint0_linear_25_478" x1="4.46645" y1="64.6871" x2="86.1621" y2="17.52" gradientUnits="userSpaceOnUse">
<stop stop-color="#DCFDEE" stop-opacity="0"/>
<stop offset="0.6288" stop-color="#D2F3E4"/>
</linearGradient>
<clipPath id="clip0_25_478">
<rect width="96" height="96" fill="white"/>
</clipPath>
</defs>
</svg>
