<svg width="360" height="145" viewBox="0 0 360 145" fill="none" xmlns="http://www.w3.org/2000/svg">
<rect width="360" height="269" fill="#D8E0E3"/>
<mask id="mask0_25_334" style="mask-type:alpha" maskUnits="userSpaceOnUse" x="0" y="0" width="360" height="269">
<rect width="360" height="269" fill="#D8E0E3"/>
</mask>
<g mask="url(#mask0_25_334)">
<path d="M269.14 177.261C167.33 183.101 211.473 310.933 299.25 354.856C221.601 354.856 42.2999 281.983 42.2999 192.875C42.2999 103.767 50.8967 15.916 128.545 15.916C206.194 15.916 269.14 88.1527 269.14 177.261Z" fill="#EAF0F7"/>
<path d="M439.425 -29.9821C439.425 73.3013 381.594 111.187 319.315 111.187C257.037 111.187 206.55 27.4591 206.55 -75.8243C206.55 -179.108 264.379 -216.993 326.659 -216.993C388.938 -216.993 439.425 -133.265 439.425 -29.9821Z" fill="#6C7782"/>
<path d="M212.611 -240.298C354.963 -226.111 408.453 -42.5503 398.425 57.8459C388.396 158.242 331.157 44.5122 188.805 30.3259C46.452 16.1396 69.9961 -17.8376 80.0244 -118.234C-21.1554 -96.9128 70.2579 -254.486 212.611 -240.298Z" fill="#D7DEE6"/>
<path opacity="0.1" d="M281.067 -129.586C358.752 -121.864 381.115 28.6216 375.642 83.2618C370.169 137.902 338.933 76.0058 261.249 68.284C183.564 60.5635 141.85 35.0256 147.322 -19.6147C152.796 -74.2549 203.383 -137.306 281.067 -129.586Z" fill="#51779D"/>
<path d="M273.382 -89.2951C324.367 -84.226 285.07 37.4165 280.245 85.5945C275.422 133.773 256.235 80.0257 205.248 74.9566C154.262 69.8862 82.7081 49.6691 87.5315 1.49237C92.355 -46.6856 222.395 -94.3642 273.382 -89.2951Z" fill="#EAF0F7"/>
<path d="M383.302 76.23C436.267 171.368 381.003 312.571 318.279 347.455C255.553 382.338 166.789 278.632 122.31 199.306C77.8324 119.981 161.093 -46.7843 260.289 -22.2119C312.054 -9.38806 357.436 29.7692 383.302 76.23Z" fill="#C0CDDA"/>
<path opacity="0.1" d="M378.436 213.351C381.311 278.895 358.006 325.39 319.877 346.606C281.748 367.822 226.156 308.908 200.753 256.503C146.561 144.707 219.437 -4.26441 298.807 56.0186C347.507 93.0059 375.759 152.296 378.436 213.351Z" fill="#51779D"/>
<path d="M429.789 181.375C432.662 246.933 401.761 311.279 371.261 314.658C329.184 319.317 317.393 268.117 316.159 225.918C314.892 182.595 349.05 70.842 371.261 167.808C387.67 239.445 427.113 120.306 429.789 181.375Z" fill="#5F758B"/>
<path d="M293.215 191.653C253.445 268.026 85.7362 363.812 -71.5504 325.266C-228.837 286.72 -0.160667 266.414 -0.160667 177.369C-0.160667 88.325 50.3315 16.1401 127.858 16.1401C161.198 16.1401 191.82 29.4779 215.899 51.7773C265.696 83.4838 317.762 144.512 293.215 191.653Z" fill="white"/>
<path d="M45.818 210.906C-43.8378 233.514 -174.837 225.257 -150.484 157.233C-110.213 44.748 -12.7639 -30.4739 107.775 -15.3233C155.202 -9.36308 200.587 27.6438 223.187 62.0613C275.165 141.215 182.618 176.409 45.818 210.906Z" fill="#BEDAF5"/>
<path d="M17.428 -84.6942C106.736 -68.0219 228.809 4.33878 176.082 110.619C146.844 169.555 15.9901 219.228 -29.3474 199.053C-104.499 165.611 -126.629 -111.586 17.428 -84.6942Z" fill="#B6C3D0"/>
<path d="M82.3797 137.081C29.4199 212.436 -139.404 259.852 -212.184 209.08C-284.966 158.307 -234.142 28.5709 -181.182 -46.7835C-128.223 -122.137 -58.0876 -164.509 14.6937 -113.736C87.4739 -62.9632 135.339 61.7279 82.3797 137.081Z" fill="#EAF0F7"/>
<path d="M9.39934 149.509C-58.0519 212.175 -219.125 238.271 -268.638 185.372C-318.15 132.472 -293.385 5.07247 -225.933 -57.5939C-158.483 -120.259 -29.1926 -135.987 20.3203 -83.088C69.8333 -30.1885 76.8497 86.8434 9.39934 149.509Z" fill="#D7DEE6"/>
</g>
</svg>
