<svg width="381" height="480" viewBox="0 0 381 480" fill="none" xmlns="http://www.w3.org/2000/svg">
<path fill-rule="evenodd" clip-rule="evenodd" d="M-19.5051 293.144C28.388 293.144 67.213 254.353 67.213 206.501C67.213 158.65 28.388 119.858 -19.5051 119.858C-67.3981 119.858 -106.223 158.65 -106.223 206.501C-106.223 254.353 -67.3981 293.144 -19.5051 293.144Z" fill="#BFCBBA"/>
<rect width="204.816" height="27.8969" transform="matrix(0.865466 -0.500968 0.50162 0.865088 155.461 206.725)" fill="#4913A5"/>
<path fill-rule="evenodd" clip-rule="evenodd" d="M127.888 374.335L56.1777 286.135L38.8949 297.603L110.648 388.063L127.888 374.335Z" fill="#E87983"/>
<rect width="56.6311" height="8.77769" transform="matrix(0.558124 0.829758 -0.830206 0.557456 36.8873 350.906)" fill="#60BEBF"/>
<path fill-rule="evenodd" clip-rule="evenodd" d="M111.653 303.235L78.7097 263.154L64.6825 271.222L96.7841 315.032L111.653 303.235Z" fill="#3A8EAA"/>
<path fill-rule="evenodd" clip-rule="evenodd" d="M343.576 2.48561L1.9166 241.265L18.7607 263.257L372.977 38.9677L343.576 2.48561Z" fill="#FABD6C"/>
<path fill-rule="evenodd" clip-rule="evenodd" d="M23.462 267.528L141.69 202.929L150.205 218.251L33.3876 282.216L23.462 267.528Z" fill="#3CD3A8"/>
<path d="M212.556 219.938L329.819 155.616L334.327 164.423L217.064 228.745L212.556 219.938Z" fill="#28203D"/>
<path fill-rule="evenodd" clip-rule="evenodd" d="M222.549 146.334L335.832 78.0956L340.944 86.5667L227.66 154.806L222.549 146.334Z" fill="#BFCBBA"/>
<rect width="132.284" height="2.50059" transform="matrix(0.890487 -0.455009 0.455636 0.890166 194.032 247.229)" fill="#849C9B"/>
<rect width="329.97" height="7.44575" transform="matrix(0.622263 0.782808 -0.783335 0.6216 -93.0339 139.692)" fill="#28203D"/>
<path fill-rule="evenodd" clip-rule="evenodd" d="M41.3211 331.447L-96.727 164.178L-118.341 178.235L17.5059 349.31L41.3211 331.447Z" fill="#849C9B"/>
<path fill-rule="evenodd" clip-rule="evenodd" d="M172.525 326.93C179.868 325.17 184.4 317.829 182.649 310.532C180.897 303.235 173.524 298.746 166.181 300.506C158.839 302.266 154.306 309.607 156.058 316.904C157.81 324.201 165.182 328.69 172.525 326.93Z" fill="#849C9B"/>
<path fill-rule="evenodd" clip-rule="evenodd" d="M-4.50664 219.958C1.24632 218.579 4.79737 212.827 3.42487 207.11C2.05237 201.393 -3.72396 197.876 -9.47691 199.255C-15.2299 200.633 -18.7809 206.386 -17.4084 212.103C-16.0359 217.82 -10.2596 221.336 -4.50664 219.958Z" fill="#DC4618"/>
<path d="M0.738762 231.263L98.1858 164.036L97.3598 162.841L-0.0872803 230.068L0.738762 231.263Z" fill="#28203D"/>
<path d="M198.278 379.639L248.678 438.676L250.532 437.096L200.133 378.058L198.278 379.639Z" fill="#28203D"/>
<path fill-rule="evenodd" clip-rule="evenodd" d="M244.502 327.451L230.991 311.921L229.782 312.971L243.294 328.5L227.751 342L228.801 343.207L244.344 329.707L257.856 345.237L259.064 344.188L245.552 328.658L261.096 315.158L260.045 313.951L244.502 327.451Z" fill="#DC4618"/>
</svg>
