<svg width="168" height="168" viewBox="0 0 168 168" fill="none" xmlns="http://www.w3.org/2000/svg">
<g opacity="0.3" clip-path="url(#clip0_20_18003)">
<path d="M69.2278 8.80515C62.876 9.42202 53.132 14.5723 55.5247 30.4371C58.2708 48.6451 48.0293 54.1563 52.3002 57.8953C61.0871 65.5878 84.7924 45.3806 82.7066 23.5875C81.6086 12.1169 75.456 8.20041 69.2278 8.80515Z" fill="#E1FDB9"/>
<path d="M82.7066 23.5876C81.6086 12.1166 75.4556 8.20015 69.2278 8.80521C67.5948 8.96369 65.7379 9.42536 63.9204 10.288C67.2653 12.3316 69.8578 16.5266 70.5338 23.5876C71.947 38.3519 61.5225 52.3855 51.9189 57.5118C52.0308 57.642 52.1565 57.7697 52.3002 57.8953C61.0871 65.5882 84.7924 45.3806 82.7066 23.5876Z" fill="#3CD3A8"/>
<path d="M51.244 162.636C56.5402 162.636 60.8337 158.373 60.8337 153.113C60.8337 147.854 56.5402 143.591 51.244 143.591C45.9477 143.591 41.6542 147.854 41.6542 153.113C41.6542 158.373 45.9477 162.636 51.244 162.636Z" fill="#E3A7AD"/>
<path d="M52.9315 143.739C50.6274 143.33 48.3689 143.776 46.4848 144.847C49.9039 146.79 51.8946 150.718 51.1616 154.789C50.6415 157.678 48.8595 160.027 46.4806 161.38C47.4095 161.908 48.4428 162.29 49.5564 162.488C54.77 163.413 59.7522 159.966 60.6841 154.789C61.616 149.612 58.1451 144.665 52.9315 143.739Z" fill="#E76773"/>
<path d="M0.108294 122.736C-0.707425 125.827 3.28192 127.851 5.314 125.373C12.2922 116.862 23.816 105.635 37.7344 102.842C68.6654 96.6356 120.518 107.675 143.088 62.192C157.177 33.7987 152.891 9.4653 132.872 5.72698C119.296 3.19188 106.469 14.0348 103.901 33.7951C99.6657 66.3832 83.8008 77.4256 62.5108 80.1293C43.3736 82.5601 9.18554 88.3285 0.108294 122.736Z" fill="#FFCB88"/>
<path d="M143.087 62.1907C131.263 86.0218 111.401 94.3371 90.72 97.7444C105.052 93.0998 118.367 83.1586 128.454 62.1907C141.336 35.4121 138.72 12.5208 121.805 6.66281C125.293 5.35818 129.052 5.01332 132.872 5.72634C152.89 9.465 157.176 33.7997 143.087 62.1907Z" fill="#FCB558"/>
<path d="M2.87931 129.216C1.55171 132.127 5.14107 134.789 7.56395 132.685C15.8845 125.461 29.1457 116.32 43.3388 115.891C74.8804 114.939 124.124 134.482 154.077 93.4174C172.775 67.782 172.672 43.0791 153.571 36.0503C140.618 31.2836 126.138 39.8296 120.258 58.8796C110.563 90.2959 93.054 98.5309 71.6094 97.6404C52.3337 96.8394 17.6558 96.8151 2.87931 129.216Z" fill="#935CF1"/>
<path d="M153.571 36.0499C148.77 34.283 143.76 34.3473 139.055 36.0952C158.037 43.1827 158.104 67.8347 139.444 93.417C125.646 112.334 107.753 118.39 89.3832 119.512C112.619 120.695 136.623 117.346 154.077 93.417C172.776 67.7816 172.672 43.079 153.571 36.0499Z" fill="#4913A5"/>
<path d="M13.9919 146.124C13.3097 146.124 12.6292 145.851 12.1295 145.31C11.1792 144.281 11.2422 142.678 12.2706 141.727C29.4981 125.805 45.1415 124.75 67.9823 128.374C89.8308 131.713 108.693 131.143 124.033 126.678C125.38 126.286 126.785 127.06 127.176 128.403C127.567 129.748 126.795 131.155 125.45 131.546C109.396 136.219 89.7986 136.838 67.202 133.384C45.4411 129.932 31.5089 130.851 15.712 145.451C15.2244 145.901 14.6072 146.124 13.9919 146.124Z" fill="#FFCB88"/>
<path d="M135.814 127.505C134.86 127.505 133.947 126.964 133.516 126.043C132.923 124.775 133.47 123.266 134.739 122.673C145.115 117.822 153.579 110.623 159.897 101.276C160.681 100.116 162.256 99.8112 163.417 100.595C164.577 101.379 164.882 102.956 164.097 104.116C157.259 114.233 148.104 122.021 136.886 127.266C136.539 127.428 136.174 127.505 135.814 127.505Z" fill="#FCB558"/>
</g>
<defs>
<clipPath id="clip0_20_18003">
<rect width="168" height="168" fill="white"/>
</clipPath>
</defs>
</svg>
